<?xml version="1.0" encoding="utf-8"?>
<!-- Generator: Adobe Illustrator 25.3.1, SVG Export Plug-In . SVG Version: 6.00 Build 0)  -->
<svg version="1.1" id="Layer_1" xmlns="http://www.w3.org/2000/svg" xmlns:xlink="http://www.w3.org/1999/xlink" x="0px" y="0px"
	 viewBox="0 0 262.9 341.3" style="enable-background:new 0 0 262.9 341.3;" xml:space="preserve">
<g>
	<path d="M250.7,316.9H12.2c-6.8,0-12.2,5.5-12.2,12.2c0,6.7,5.5,12.2,12.2,12.2h238.5c6.7,0,12.2-5.5,12.2-12.2
		C262.9,322.4,257.5,316.9,250.7,316.9"/>
	<path d="M18.4,239.3v49.5c0,6.8,5.5,12.2,12.2,12.2c6.7,0,12.2-5.5,12.2-12.2v-49.5c0-6.7-5.5-12.2-12.2-12.2
		C23.9,227.1,18.4,232.6,18.4,239.3"/>
	<path d="M82,203.4v85.4c0,6.7,5.5,12.2,12.2,12.2c6.7,0,12.2-5.5,12.2-12.2v-85.4c0-6.7-5.5-12.2-12.2-12.2
		C87.5,191.1,82,196.6,82,203.4"/>
	<path d="M145.6,156.6v132.2c0,6.7,5.5,12.2,12.2,12.2c6.7,0,12.2-5.5,12.2-12.2V156.6c0-6.7-5.5-12.2-12.2-12.2
		C151.1,144.4,145.6,149.9,145.6,156.6"/>
	<path d="M221.5,79.7c-6.7,0-12.2,5.5-12.2,12.2v196.9c0,6.8,5.5,12.2,12.2,12.2c6.7,0,12.2-5.5,12.2-12.2V91.9
		C233.7,85.2,228.2,79.7,221.5,79.7"/>
	<path d="M15.7,199.7c2.2,1.6,4.7,2.4,7.2,2.4c3.8,0,7.5-1.7,9.9-5L77,136.9l31.3,23.2L153.8,98l19,13.1l48.6-61.5l11.4,8.5
		c2.1,1.5,4.5,2.3,7,2.3c2,0,4.1-0.5,5.9-1.6c4.1-2.4,6.3-6.9,5.7-11.6l-4.7-36.9c-0.4-3.1-2.1-6-4.6-7.9c-2.5-1.9-5.8-2.7-8.9-2.2
		l-36.7,6.1c-4.6,0.8-8.4,4.2-9.5,8.8c-1.1,4.6,0.6,9.3,4.4,12.2l10.4,7.7l-34,43l-19.7-13.5l-45,61.4l-31.3-23.2l-58.7,80
		C9.1,188.1,10.3,195.7,15.7,199.7"/>
</g>
</svg>
