<?xml version="1.0" encoding="utf-8"?>
<!-- Generator: Adobe Illustrator 25.3.1, SVG Export Plug-In . SVG Version: 6.00 Build 0)  -->
<svg version="1.1" id="Layer_1" xmlns="http://www.w3.org/2000/svg" xmlns:xlink="http://www.w3.org/1999/xlink" x="0px" y="0px"
	 viewBox="0 0 214 214" style="enable-background:new 0 0 214 214;" xml:space="preserve">
<style type="text/css">
	.st0{fill:#B5121B;}
</style>
<path class="st0" d="M107,0C47.9,0,0,47.9,0,107s47.9,107,107,107s107-47.9,107-107S166.1,0,107,0z M135.7,110.8
	c-0.3,0.9-0.9,1.7-1.5,2.4c-11.4,11.5-22.9,22.9-34.4,34.4c-1.7,1.7-3.8,2.3-6.1,1.5c-2.2-0.8-3.4-2.5-3.7-4.8
	c-0.2-1.8,0.5-3.4,1.8-4.7c2.4-2.4,4.8-4.8,7.3-7.3c7.5-7.5,15.1-15.1,22.6-22.6c0.2-0.2,0.4-0.4,0.7-0.6c-0.3-0.3-0.5-0.5-0.7-0.8
	c-9.9-9.9-19.8-19.8-29.8-29.7c-1.7-1.7-2.4-3.7-1.7-6c0.6-1.9,1.8-3.1,3.7-3.7c0.3-0.1,0.6-0.2,0.9-0.3c0.5,0,1.1,0,1.6,0
	c1.7,0.4,3,1.4,4.2,2.6c11.1,11.2,22.3,22.3,33.4,33.4C135.8,106.4,136.5,108.4,135.7,110.8z"/>
</svg>
