<?xml version="1.0" encoding="utf-8"?>
<!-- Generator: Adobe Illustrator 25.3.1, SVG Export Plug-In . SVG Version: 6.00 Build 0)  -->
<svg version="1.1" id="Layer_1" xmlns="http://www.w3.org/2000/svg" xmlns:xlink="http://www.w3.org/1999/xlink" x="0px" y="0px"
	 viewBox="0 0 311.8 311.8" style="enable-background:new 0 0 311.8 311.8;" xml:space="preserve">
<g>
	<path d="M155.9,0C69.9,0,0,69.9,0,155.9c0,86,69.9,155.9,155.9,155.9c24.8,0,48.3-5.9,69.1-16.2c1.2-0.4,2.2-0.9,3.2-1.6
		c49.6-26.1,83.6-78.2,83.6-138.1C311.8,69.9,241.8,0,155.9,0 M152.4,18.3v65c-18.5-0.2-35.9-2.7-50.4-6.8
		C114.6,43.2,134.8,20.8,152.4,18.3 M95.4,74.3c-16.9-5.8-28.8-13.9-32.2-22.9c20-17.8,45.1-29.9,72.8-33.8
		C120.7,27.3,105.6,47.3,95.4,74.3 M159.3,18.3c17.5,2.7,37.4,24.8,49.9,57.7c-14.3,4.2-31.5,6.8-49.9,7.2V18.3z M175.4,17.6
		c27.2,3.8,51.9,15.5,71.8,32.6c-2.7,9.3-14.3,17.7-31.3,23.7C205.7,47,190.7,27.2,175.4,17.6 M172.3,143c0.2,0.1,0.3,0.2,0.5,0.4
		c1.2,0.9,2.3,1.8,3.3,2.9c1.7,1.7,3.2,3.7,4.5,5.8c0.6,1,1.1,1.9,1.7,3l-53,32.7c-1.3-4.1-2.1-8.5-2.1-13.2c0-1.4,0.1-2.7,0.2-4
		L172.3,143z M129.3,161.3c0-0.1,0-0.1,0.1-0.2c2.2-6.9,6.1-12.9,11.1-17c0.3-0.3,0.7-0.5,1-0.7c1.3-1,2.6-1.9,4.1-2.6
		c3.6-1.9,7.5-2.9,11.6-2.9c2.8,0,5.6,0.5,8.2,1.4L129.3,161.3z M141.3,205.6c-1.8-1.4-3.4-2.9-4.9-4.7c-1.4-1.7-2.7-3.5-3.8-5.5
		c-0.2-0.4-0.4-0.8-0.6-1.1l53-32.7c1.3,4.1,2,8.4,2,13c0,0.8,0,1.7-0.1,2.5L141.3,205.6z M185.4,186.2c-1.4,5-3.6,9.5-6.4,13.3
		c-0.4,0.5-0.7,1-1.1,1.4c-0.6,0.7-1.3,1.4-1.9,2.1c-0.9,0.9-1.9,1.8-2.9,2.5c-4.6,3.6-10.1,5.8-16,5.8c-2,0-4-0.2-5.9-0.7
		c-1.1-0.3-2.2-0.6-3.2-1.1L185.4,186.2z M136.9,227.2c3,1.5,6.1,2.6,9.4,3.5l-25.7,15.9c1.2-1.6,2.3-3.3,3.6-4.9
		C128.8,235.9,133,231.1,136.9,227.2 M157.2,232c7.1,0,13.9-1.7,20.1-4.8c2,2,4.2,4.3,6.4,6.8l-81,50c0.6-5.4,3.7-14,9.4-24
		L157.2,232z M109.8,287.8l78.3-48.4c0.6,0.8,1.2,1.5,1.8,2.3c3,4,5.8,7.9,8.2,11.7l-64.9,40.4C125.2,292.5,117.4,290.5,109.8,287.8
		 M155.9,295.7c-3.9,0-7.8-0.2-11.7-0.5l57.5-35.8c2.7,4.7,4.8,9.1,6.4,13l-35.8,22.3C166.9,295.3,161.5,295.7,155.9,295.7
		 M190.9,291.2l19.6-12.2c0.5,1.9,0.9,3.6,1,5.1C204.9,287,198,289.4,190.9,291.2 M272.2,233.4c-4.1-5.8-8.8-11.6-13.8-17
		c-3,3.4-6.4,6.5-10.1,9c-2,1.4-4.1,2.7-6.3,3.8c-7,3.6-14.7,5.6-22.8,5.6c-0.1,0-0.2,0-0.3,0c6.1,9.1,13.7,22.1,17.6,35.1
		c-2,1.4-4,2.7-6,4c-3.5-13.1-11.9-27.9-20.6-40c-1.1-1.5-2.1-2.9-3.2-4.3c-0.1-0.2-0.3-0.4-0.4-0.5c-1.1-1.4-2.3-2.9-3.6-4.5
		c-2.5-3.1-5.4-6.4-8.6-9.7c-0.2-0.2-0.4-0.4-0.6-0.7c0.4-0.4,0.7-0.9,1.1-1.4l0.5-2.4c0.3,0.2,0.5,0.5,0.8,0.7
		c2.7-3.6,4.9-7.7,6.7-12c3.1-7.5,4.9-15.8,4.9-24.6c0-15-5.1-28.6-13.3-38.8c-1.7-2.1-3.5-4.1-5.5-5.9c-0.9-0.8-1.7-1.5-2.6-2.3
		c-0.9-0.7-1.8-1.4-2.8-2.1c-7.1-4.9-15.3-7.9-24.1-8.3c-0.7,0-1.5-0.1-2.2-0.1c-1.6,0-3.1,0.1-4.7,0.3c-1.9,0.2-3.7,0.5-5.5,0.9
		c-1.6,0.4-3.3,0.9-4.8,1.4c-3.6,1.3-7.1,3-10.3,5.2c-1.9,1.3-3.8,2.7-5.6,4.3c-1.1,0.9-2.1,1.9-3.1,2.9c-1.4,1.5-2.7,3-4,4.6
		c-0.3,0.4-0.7,0.9-1,1.3c-1,1.4-2,2.9-2.9,4.4c-0.5,0.8-0.9,1.5-1.3,2.3c-0.1,0.3-0.3,0.5-0.4,0.8c-1.1,2.2-2.1,4.5-3,6.8
		c-2.5,6.8-3.9,14.3-3.9,22.2c0,3.8,0.3,7.6,1,11.2c0.3,1.8,0.7,3.6,1.2,5.4c0.5,1.9,1.1,3.7,1.8,5.5c0.6,1.5,1.2,3,1.9,4.5
		c0.4,0.8,0.8,1.5,1.2,2.3c1.6,3.2,3.5,6.1,5.7,8.9c0.5,0.6,0.9,1.3,1.4,1.9c-3.8,3.9-7.2,7.9-10.1,11.4c-1,1.2-1.9,2.3-2.7,3.4
		c-0.3,0.4-0.7,0.9-1,1.4c-1.2,1.6-2.5,3.3-3.7,5c-0.7,1-1.4,2-2.1,3.1c-3.2,4.7-6.2,9.8-8.9,14.9c-3.9,7.4-7,14.9-8.7,21.8
		c-10.5-6.4-20-14.1-28.4-22.9c4.9-7.5,10.1-14.3,15.2-19.9c-6-3.3-11.4-7.7-16.1-13.1c-4.8,5.4-9.2,11-12.9,16.2
		c-15.8-22.6-25.1-50.1-25.1-79.8c0-0.8,0-1.5,0.1-2.3c5.1,6.2,12.4,12,21.7,17.2c0.1-2.6,0.4-5.1,0.8-7.6
		C28,156.8,20.5,149.5,16.8,142c3.3-33.4,18.5-63.3,41.1-85.6c5.2,9.9,17.7,18.5,35.1,24.5c-3.1,9.4-5.7,19.5-7.4,30.3
		c2.3-0.4,4.7-0.7,7.2-0.8c1.7-9.6,4-18.8,6.9-27.3c15.1,4.4,33.1,7,52.7,7.2v20.3c1.5-0.2,3.1-0.3,4.7-0.3c0.8,0,1.5,0.1,2.2,0.1
		V90.1c19.5-0.4,37.4-3.1,52.3-7.5c2.9,8.8,5.4,18.2,7.1,28.1c0.2,0,0.3,0,0.5,0c2.2,0,4.4,0.2,6.6,0.5c-1.8-10.9-4.4-21.2-7.6-30.7
		c17.4-6.2,29.8-15,34.4-25.2c23.4,22.4,39,52.9,42.3,86.9c-3.6,7.4-10.8,14.5-21.3,20.9c0.4,2.5,0.6,5,0.7,7.6
		c9.1-5.2,16.2-10.9,21.2-17c0,0.8,0.1,1.6,0.1,2.3C295.7,184.5,287,211.2,272.2,233.4"/>
	<path d="M226.9,118.3L226.9,118.3c-1.1-0.2-2.3-0.4-3.4-0.5c-0.1,0-0.2,0-0.3,0c-1.1-0.1-2.3-0.2-3.4-0.2c-0.2,0-0.4,0-0.6,0
		c-8.9,0-17.5,2.8-25,8c2,1.9,3.8,3.9,5.5,6c9.2,11.4,14.8,26.5,14.8,43c0,9.5-1.9,18.8-5.4,27.2c-1.8,4.2-3.9,8.3-6.5,12
		c0.9,1,1.8,2.1,2.7,3.2c2.2,2.6,4.4,5.2,6.5,8c0.6,0.7,1.2,1.6,2,2.6c1.8,0.2,3.6,0.3,5.4,0.3c6.2,0,12.1-1.4,17.6-3.8
		c2-0.9,4-2,5.8-3.1c4-2.6,7.7-5.8,10.9-9.5c8.3-9.6,13.5-22.8,13.9-37.2c0-0.5,0.1-1,0.1-1.5C267.5,145.3,249.9,122.5,226.9,118.3"
		/>
	<path d="M114.4,121.4c-1.7-0.8-3.5-1.5-5.3-2.1c-0.9-0.3-1.8-0.6-2.7-0.8c-3.6-0.9-7.4-1.4-11.2-1.4c-1.2,0-2.3,0.1-3.5,0.1h0
		c-1.2,0.1-2.4,0.2-3.6,0.4c0,0-0.1,0-0.1,0c-1.2,0.2-2.3,0.4-3.4,0.7c-0.7,0.2-1.3,0.3-2,0.5c-0.8,0.2-1.6,0.5-2.4,0.8
		c-2.4,0.8-4.7,1.9-6.9,3.1c-1.5,0.8-2.9,1.7-4.3,2.7c-2.8,1.9-5.4,4.1-7.8,6.6c-1.2,1.2-2.3,2.5-3.4,3.9c-1.1,1.4-2.1,2.8-3.1,4.3
		c-5.7,8.6-9.2,19-9.9,30.4c-0.1,1.3-0.1,2.5-0.1,3.8c0,0.1,0,0.1,0,0.2c0,12.9,3.7,24.8,10.1,34.4c1,1.5,2,2.9,3.1,4.3
		c0.3,0.4,0.6,0.8,1,1.1c0.8,0.9,1.6,1.9,2.5,2.8c2.4,2.5,5,4.7,7.8,6.6c1.4,1,2.8,1.8,4.3,2.7c0.6,0.3,1.2,0.6,1.7,0.9
		c1.7,0.8,3.4,1.6,5.1,2.2c0.8,0.3,1.6,0.5,2.4,0.8c4,1.2,8.3,1.8,12.6,1.8c0.7,0,1.3,0,1.9-0.1c2.1-3,3.9-5.4,5.1-7.1
		c1.3-1.7,2.7-3.4,4.1-5.1c1.7-2.1,3.4-4.1,5.2-6c-1.3-1.9-2.5-4-3.6-6c-0.4,0.2-0.8,0.5-1.3,0.7c-1,0.5-2,0.9-3,1.3
		c-0.8,0.3-1.7,0.6-2.5,0.8c-1.9,0.5-3.9,0.7-5.9,0.7c-3.1,0-6.1-0.6-8.9-1.7c-0.9-0.4-1.8-0.8-2.7-1.2c-3.4-1.8-6.5-4.3-9.1-7.5
		c-0.1-0.1-0.3-0.3-0.4-0.4c-1.4-1.7-2.6-3.5-3.6-5.4c-1.1-2-2-4-2.8-6.2c-1.5-4.4-2.3-9.2-2.3-14.3c0-5.1,0.8-9.9,2.3-14.3
		c0.8-2.2,1.7-4.3,2.8-6.2c1.1-2,2.3-3.8,3.6-5.4c2.7-3.3,5.9-6,9.5-7.9c0.9-0.5,1.8-0.9,2.7-1.2c2.8-1.1,5.8-1.7,8.9-1.7
		c1.1,0,2.1,0.1,3.2,0.2c3.3,0.4,6.5,1.6,9.5,3.3c1.7-3.1,3.6-6,5.7-8.7c2.2-2.8,4.5-5.4,7.1-7.8c-1.2-0.8-2.4-1.5-3.7-2.2
		C116.1,122.2,115.3,121.8,114.4,121.4"/>
</g>
</svg>
