<svg xmlns="http://www.w3.org/2000/svg" viewBox="0 0 359.33 359.33"><defs><style>.cls-1{fill:#fff;}</style></defs><g id="Layer_2" data-name="Layer 2"><g id="Layer_1-2" data-name="Layer 1"><path class="cls-1" d="M179.66,359.33l-127-52.62-.66-1.6L0,179.67l52.63-127L179.67,0l127,52.63.66,1.59,52,125.45L306.71,306.72ZM56.15,303.19l123.52,51.16,123.52-51.16,51.17-123.52L303.19,56.15,179.67,5,56.15,56.15,5,179.67Z"/><path class="cls-1" d="M48.87,149.78H93.26V161.3H61.73v11.94H89.48v11.52H61.73v12.36h32v11.51H48.87Z"/><path class="cls-1" d="M105.21,149.78h24c14,0,22.53,8.32,22.53,20.35v.16c0,13.62-10.6,20.69-23.8,20.69h-9.83v17.65h-13Zm23.21,29.68c6.47,0,10.25-3.87,10.25-8.91v-.17c0-5.8-4-8.91-10.51-8.91h-10v18Z"/><path class="cls-1" d="M178.28,181.06H160v-4h18.24V158.94h4.21V177h18.24v4H182.49v18.07h-4.21Z"/><path class="cls-1" d="M208.81,179.38v-.17c0-16.73,12.61-30.44,30.69-30.44,11.1,0,17.74,3.7,23.2,9.08l-8.23,9.5c-4.55-4.12-9.17-6.64-15.06-6.64-9.92,0-17.06,8.24-17.06,18.33v.17c0,10.09,7,18.49,17.06,18.49,6.73,0,10.85-2.69,15.47-6.89l8.25,8.32c-6.06,6.48-12.78,10.51-24.13,10.51C221.67,209.64,208.81,196.28,208.81,179.38Z"/><path class="cls-1" d="M270.72,169.72v-.11c0-10.83,8.73-19.62,20.37-19.62s20.27,8.68,20.27,19.51v.11c0,10.83-8.73,19.62-20.38,19.62S270.72,180.55,270.72,169.72Zm29.91,0v-.11c0-5.5-3.88-10.19-9.65-10.19s-9.59,4.64-9.59,10.08v.11c0,5.44,3.93,10.19,9.7,10.19S300.63,175.16,300.63,169.72Z"/><rect class="cls-1" x="277.53" y="196.36" width="26.95" height="7.22"/></g></g></svg>