<?xml version="1.0" encoding="utf-8"?>
<!-- Generator: Adobe Illustrator 25.3.1, SVG Export Plug-In . SVG Version: 6.00 Build 0)  -->
<svg version="1.1" id="Layer_1" xmlns="http://www.w3.org/2000/svg" xmlns:xlink="http://www.w3.org/1999/xlink" x="0px" y="0px"
	 viewBox="0 0 484.2 112.3" style="enable-background:new 0 0 484.2 112.3;" xml:space="preserve">
<style type="text/css">
	.st0{fill:#FFFFFF;}
</style>
<g>
	<g>
		<path class="st0" d="M0,1.9h81.9v21.3H23.7v22h51.2v21.3H23.7v22.8h58.9v21.3H0V1.9z"/>
		<path class="st0" d="M103.9,1.9h44.4c25.9,0,41.6,15.4,41.6,37.5v0.3c0,25.1-19.5,38.2-43.9,38.2h-18.2v32.6h-23.9V1.9z
			 M146.7,56.6c11.9,0,18.9-7.1,18.9-16.4v-0.3c0-10.7-7.4-16.4-19.4-16.4h-18.5v33.2H146.7z"/>
		<path class="st0" d="M238.7,59.6h-33.7v-7.4h33.7V18.8h7.8v33.4h33.7v7.4h-33.7v33.4h-7.8V59.6z"/>
		<path class="st0" d="M295,56.5v-0.3C295,25.3,318.3,0,351.7,0c20.5,0,32.7,6.8,42.8,16.8l-15.2,17.5c-8.4-7.6-16.9-12.3-27.8-12.3
			C333.2,22,320,37.2,320,55.8v0.3c0,18.6,12.9,34.1,31.5,34.1c12.4,0,20-5,28.5-12.7l15.2,15.4c-11.2,11.9-23.6,19.4-44.5,19.4
			C318.8,112.3,295,87.6,295,56.5z"/>
	</g>
	<g>
		<path class="st0" d="M409.2,38.7v-0.2c0-20,16.1-36.2,37.6-36.2c21.5,0,37.4,16,37.4,36v0.2c0,20-16.1,36.2-37.6,36.2
			C425.1,74.7,409.2,58.6,409.2,38.7z M464.4,38.7v-0.2c0-10.1-7.2-18.8-17.8-18.8s-17.7,8.6-17.7,18.6v0.2c0,10,7.3,18.8,17.9,18.8
			C457.4,57.3,464.4,48.7,464.4,38.7z"/>
	</g>
	<rect x="421.8" y="87.8" class="st0" width="49.7" height="13.3"/>
</g>
</svg>
