<?xml version="1.0" encoding="utf-8"?>
<!-- Generator: Adobe Illustrator 25.3.1, SVG Export Plug-In . SVG Version: 6.00 Build 0)  -->
<svg version="1.1" id="Layer_1" xmlns="http://www.w3.org/2000/svg" xmlns:xlink="http://www.w3.org/1999/xlink" x="0px" y="0px"
	 viewBox="0 0 285 306.6" style="enable-background:new 0 0 285 306.6;" xml:space="preserve">
<g>
	<path d="M280.5,118.3l-41-32.2V0H173v33.8l-30.5-24L4.5,118.3c-5.1,4-6,11.4-2,16.5c2.3,3,5.8,4.5,9.2,4.5c2.5,0,5.1-0.8,7.3-2.5
		l123.5-97l35,27.5c0.1,0.1,0.2,0.1,0.3,0.2c0.3,0.3,0.7,0.5,1.1,0.7c0.3,0.2,0.6,0.4,0.9,0.5c0.4,0.2,0.7,0.3,1.1,0.4
		c0.4,0.1,0.7,0.3,1.1,0.3c0.3,0.1,0.7,0.1,1.1,0.2c0.4,0.1,0.8,0.1,1.3,0.1c0.1,0,0.3,0,0.4,0c0.2,0,0.4-0.1,0.7-0.1
		c0.4,0,0.8-0.1,1.2-0.1c0.4-0.1,0.7-0.1,1.1-0.2c0.4-0.1,0.7-0.2,1.1-0.3c0.4-0.1,0.7-0.3,1-0.5c0.3-0.2,0.7-0.3,1-0.5
		c0.3-0.2,0.6-0.4,0.9-0.7c0.3-0.2,0.6-0.5,0.9-0.7c0.3-0.3,0.6-0.6,0.9-0.9c0.1-0.2,0.3-0.3,0.4-0.5c0.1-0.1,0.1-0.2,0.2-0.3
		c0.3-0.3,0.5-0.7,0.7-1.1c0.2-0.3,0.4-0.6,0.5-0.9c0.2-0.4,0.3-0.7,0.4-1.1c0.1-0.4,0.3-0.7,0.3-1.1c0.1-0.3,0.1-0.7,0.2-1.1
		c0.1-0.4,0.1-0.8,0.1-1.3c0-0.1,0-0.3,0-0.4V23.5H216v68.3c0,0.2,0.1,0.4,0.1,0.7c0,0.4,0.1,0.8,0.1,1.2c0.1,0.4,0.1,0.7,0.2,1.1
		c0.1,0.4,0.2,0.7,0.3,1.1c0.1,0.4,0.3,0.7,0.4,1c0.2,0.3,0.3,0.7,0.5,1c0.2,0.3,0.4,0.6,0.7,0.9c0.2,0.3,0.5,0.6,0.7,0.9
		c0.3,0.3,0.6,0.6,0.9,0.9c0.2,0.1,0.3,0.3,0.5,0.5l45.5,35.7c2.2,1.7,4.7,2.5,7.3,2.5c3.5,0,6.9-1.5,9.2-4.5
		C286.5,129.7,285.6,122.3,280.5,118.3"/>
	<path d="M254.5,175.7c0-39.1-31.8-70.9-70.9-70.9c-14.9,0-29.2,4.8-41.1,13.2c-11.8-8.4-26.1-13.2-41.1-13.2
		c-39.1,0-70.9,31.8-70.9,70.9c0,23.3,17.1,49.6,52.2,80.6c23,20.3,45.8,35.5,46.8,36.2l13.1,8.7l13-8.7c1-0.6,23.7-15.9,46.7-36.3
		C237.9,224.7,254.5,199.1,254.5,175.7 M142.5,273c0,0-88.5-58.9-88.5-97.2c0-26.2,21.2-47.4,47.4-47.4c17.6,0,32.9,9.6,41.1,23.8
		c8.2-14.2,23.5-23.8,41.1-23.8c26.2,0,47.4,21.2,47.4,47.4C231,213.7,142.5,273,142.5,273"/>
	<path d="M83.1,283.1H46.4v-35.4c0-6.5-5.3-11.8-11.8-11.8c-6.5,0-11.8,5.3-11.8,11.8v58.9h60.1c6.5,0,11.8-5.3,11.8-11.8
		C94.8,288.4,89.6,283.1,83.1,283.1"/>
	<path d="M250.3,236c-6.5,0-11.8,5.3-11.8,11.8v35.4H202c-6.5,0-11.8,5.3-11.8,11.8c0,6.5,5.3,11.8,11.8,11.8h60.1v-58.9
		C262.1,241.2,256.8,236,250.3,236"/>
</g>
</svg>
