<?xml version="1.0" encoding="utf-8"?>
<!-- Generator: Adobe Illustrator 25.3.1, SVG Export Plug-In . SVG Version: 6.00 Build 0)  -->
<svg version="1.1" id="Layer_1" xmlns="http://www.w3.org/2000/svg" xmlns:xlink="http://www.w3.org/1999/xlink" x="0px" y="0px"
	 viewBox="0 0 214 214" style="enable-background:new 0 0 214 214;" xml:space="preserve">
<style type="text/css">
	.st0{fill:#B5121B;}
</style>
<path class="st0" d="M107,0C47.9,0,0,47.9,0,107s47.9,107,107,107s107-47.9,107-107S166.1,0,107,0z M135,133.6
	c-2.4,3.9-6.1,7.1-11.1,9.4c-5,2.4-11.1,3.5-18.3,3.5c-5.6,0-11.2-0.7-16.6-2.2c-5.4-1.5-10.1-3.6-13.9-6.3l7.2-14.1
	c3,2.3,6.6,4,10.5,5.3c4,1.3,8.1,1.9,12.3,1.9c4.6,0,8.3-0.9,10.9-2.7c2.7-1.8,4-4.3,4-7.6c0-6.5-5-9.8-14.9-9.8h-8.4V98.8
	l16.4-18.6h-34V65.4H135v12l-18,20.5c7,1.1,12.3,3.7,16.1,7.8c3.7,4.1,5.6,9.1,5.6,15.1C138.6,125.4,137.4,129.7,135,133.6z"/>
</svg>
