<?xml version="1.0" encoding="utf-8"?>
<!-- Generator: Adobe Illustrator 25.3.1, SVG Export Plug-In . SVG Version: 6.00 Build 0)  -->
<svg version="1.1" id="Layer_1" xmlns="http://www.w3.org/2000/svg" xmlns:xlink="http://www.w3.org/1999/xlink" x="0px" y="0px"
	 viewBox="0 0 214 214" style="enable-background:new 0 0 214 214;" xml:space="preserve">
<style type="text/css">
	.st0{fill:#B5121B;}
</style>
<path class="st0" d="M107,0C47.9,0,0,47.9,0,107s47.9,107,107,107s107-47.9,107-107S166.1,0,107,0z M135.6,142.1H75.8v-11.9
	l30.5-28.8c3.2-3.1,5.4-5.7,6.6-8c1.1-2.2,1.7-4.4,1.7-6.6c0-3.2-1.1-5.6-3.2-7.3c-2.1-1.7-5.3-2.5-9.4-2.5c-3.5,0-6.6,0.7-9.4,2
	c-2.8,1.3-5.1,3.3-7,5.9l-13.3-8.6c3.1-4.6,7.3-8.2,12.8-10.8c5.4-2.6,11.6-3.9,18.6-3.9c5.9,0,11,1,15.4,2.9
	c4.4,1.9,7.8,4.6,10.3,8.1c2.4,3.5,3.7,7.6,3.7,12.4c0,4.3-0.9,8.3-2.7,12.1c-1.8,3.8-5.3,8.1-10.5,12.9l-18.2,17.2h34V142.1z"/>
</svg>
