<?xml version="1.0" encoding="utf-8"?>
<!-- Generator: Adobe Illustrator 25.3.1, SVG Export Plug-In . SVG Version: 6.00 Build 0)  -->
<svg version="1.1" id="Layer_1" xmlns="http://www.w3.org/2000/svg" xmlns:xlink="http://www.w3.org/1999/xlink" x="0px" y="0px"
	 viewBox="0 0 214 214" style="enable-background:new 0 0 214 214;" xml:space="preserve">
<style type="text/css">
	.st0{fill:#B5121B;}
</style>
<path class="st0" d="M107,0C47.9,0,0,47.9,0,107s47.9,107,107,107s107-47.9,107-107S166.1,0,107,0z M135.1,131.7
	c-2.4,4-6.1,7.2-11.1,9.6c-5,2.4-11.1,3.6-18.4,3.6c-5.6,0-11.2-0.7-16.6-2.2c-5.4-1.5-10.1-3.6-13.9-6.3l7.3-14.1
	c3,2.3,6.5,4,10.5,5.3c4,1.3,8,1.9,12.2,1.9c4.6,0,8.3-0.9,10.9-2.7c2.7-1.8,4-4.4,4-7.6c0-3.4-1.4-6-4.2-7.8
	c-2.8-1.7-7.6-2.6-14.4-2.6H81l4.1-44.9h48.7v14.8h-33.3l-1.3,15.2h6.5c11.2,0,19.6,2.2,24.9,6.7c5.4,4.5,8,10.5,8,18
	C138.7,123.3,137.5,127.7,135.1,131.7z"/>
</svg>
