<?xml version="1.0" encoding="utf-8"?>
<!-- Generator: Adobe Illustrator 25.3.1, SVG Export Plug-In . SVG Version: 6.00 Build 0)  -->
<svg version="1.1" id="Layer_1" xmlns="http://www.w3.org/2000/svg" xmlns:xlink="http://www.w3.org/1999/xlink" x="0px" y="0px"
	 viewBox="0 0 318.7 267.6" style="enable-background:new 0 0 318.7 267.6;" xml:space="preserve">
<g>
	<path d="M210,229.9c50.6-53.5,41.3-182.4,40.9-187.8c-0.5-6-5.4-10.6-11.4-10.6H232C227.6,13.5,211.4,0,192,0s-35.6,13.5-40,31.5
		h-6.7C141,13.5,124.7,0,105.4,0s-35.6,13.5-40,31.5H49.3c-3.2,0-6.2,1.3-8.4,3.7c-2.2,2.3-3.3,5.5-3,8.7c0,0.3,2.4,31.9-1,69.1
		c-4.4,47.6-16,82.6-33.7,101.2c-3.1,3.3-4,8.2-2.2,12.4c1.8,4.2,6,6.9,10.5,6.9h190.2C204.8,233.5,207.8,232.2,210,229.9 M192,22.9
		c6.5,0,12.2,3.4,15.4,8.5h-30.8C179.9,26.4,185.6,22.9,192,22.9 M105.4,22.9c6.5,0,12.2,3.4,15.4,8.5H89.9
		C93.2,26.4,98.9,22.9,105.4,22.9 M66.4,54.4c5.5,16.2,20.9,27.9,38.9,27.9c6.3,0,11.5-5.1,11.5-11.5c0-6.3-5.1-11.5-11.5-11.5
		c-4.8,0-9.2-1.9-12.4-4.9h60.2c5.5,16.2,20.9,27.9,38.9,27.9c6.3,0,11.5-5.1,11.5-11.5c0-6.3-5.1-11.5-11.5-11.5
		c-4.8,0-9.2-1.9-12.4-4.9h48.9c0.3,9,0.5,23.1-0.3,39.4H61.1c0.7-16.2,0.5-30.1,0.2-39.4H66.4z M34,210.6
		c15.4-26.8,22.5-62.3,25.5-93.7h167.1c-4.3,42.7-14.7,74.9-30.1,93.7H34z"/>
	<path d="M290.1,50.1c-15.8,0-28.6,12.9-28.6,28.6v164.4H58c-6.3,0-11.5,5.1-11.5,11.5s5.1,11.5,11.5,11.5h226.4V78.7
		c0-3.1,2.6-5.7,5.7-5.7c3.1,0,5.7,2.6,5.7,5.7v177.3c0,6.3,5.1,11.5,11.5,11.5c6.3,0,11.5-5.1,11.5-11.5V78.7
		C318.7,62.9,305.8,50.1,290.1,50.1"/>
</g>
</svg>
