<?xml version="1.0" encoding="utf-8"?>
<!-- Generator: Adobe Illustrator 25.3.1, SVG Export Plug-In . SVG Version: 6.00 Build 0)  -->
<svg version="1.1" id="Layer_1" xmlns="http://www.w3.org/2000/svg" xmlns:xlink="http://www.w3.org/1999/xlink" x="0px" y="0px"
	 viewBox="0 0 261.9 345.1" style="enable-background:new 0 0 261.9 345.1;" xml:space="preserve">
<g>
	<path d="M226,111.7l-2.3-14.2l-14.2-2.3l-1.2-0.2l0.7-1l8.5-11.7L209,70.7c-6.2-8.6-13.7-16.1-22.3-22.3L175,40l-11.7,8.5l-1,0.7
		l-0.2-1.2l-2.3-14.2l-14.2-2.3c-5.3-0.9-10.6-1.3-15.8-1.3c-5.2,0-10.5,0.4-15.8,1.3l-14.2,2.3l-2.3,14.2l-0.2,1.2l-1-0.7L84.8,40
		l-11.7,8.4c-8.6,6.2-16.1,13.7-22.3,22.3l-8.4,11.7l8.5,11.7l0.7,1l-1.2,0.2L36,97.5l-2.3,14.2c-0.9,5.3-1.3,10.6-1.3,15.8
		c0,5.2,0.4,10.5,1.3,15.8l2.3,14.2l14.2,2.3l1.2,0.2l-0.7,1l-8.5,11.7l8.4,11.7c6.2,8.6,13.7,16.1,22.3,22.3l11.7,8.4l11.7-8.5
		l1-0.7l0.2,1.2l2.3,14.2l14.2,2.3c5.3,0.9,10.6,1.3,15.8,1.3c5.2,0,10.5-0.4,15.8-1.3l14.2-2.3l2.3-14.2l0.2-1.2l1,0.7L175,215
		l11.7-8.4c8.6-6.2,16.1-13.7,22.3-22.3l8.4-11.7l-8.5-11.7l-0.7-1l1.2-0.2l14.2-2.3l2.3-14.2c0.9-5.3,1.3-10.6,1.3-15.8
		C227.3,122.3,226.9,117,226,111.7 M206.3,140.1l-18.1,2.9c-1.4,5.3-3.5,10.3-6.2,14.9l10.8,14.8c-4.9,6.8-10.9,12.9-17.8,17.8
		l-14.8-10.8c-4.6,2.7-9.6,4.8-14.9,6.2l-2.9,18.1c-4.1,0.7-8.3,1-12.6,1s-8.5-0.4-12.6-1l-2.9-18.1c-5.3-1.4-10.3-3.5-14.9-6.2
		l-14.8,10.8c-6.8-4.9-12.9-10.9-17.8-17.8l10.8-14.8c-2.7-4.6-4.8-9.6-6.2-14.9l-18.1-2.9c-0.7-4.1-1-8.3-1-12.6s0.4-8.5,1-12.6
		l18.1-2.9c1.4-5.3,3.5-10.3,6.2-14.9L66.9,82.4c4.9-6.8,10.9-12.9,17.8-17.8l14.8,10.8c4.6-2.7,9.6-4.8,14.9-6.2l2.9-18.1
		c4.1-0.7,8.3-1,12.6-1s8.5,0.4,12.6,1l2.9,18.1c5.3,1.4,10.3,3.5,14.9,6.2L175,64.6c6.8,4.9,12.9,10.9,17.8,17.8L182,97.2
		c2.7,4.6,4.8,9.6,6.2,14.9l18.1,2.9c0.7,4.1,1,8.3,1,12.6S207,136,206.3,140.1"/>
	<path d="M129.9,91.5c-19.9,0-36,16.2-36,36c0,19.9,16.2,36,36,36c19.9,0,36-16.2,36-36C165.9,107.6,149.7,91.5,129.9,91.5
		 M129.9,143.6c-8.9,0-16.1-7.2-16.1-16.1c0-8.9,7.2-16.1,16.1-16.1c8.9,0,16.1,7.2,16.1,16.1C146,136.4,138.7,143.6,129.9,143.6"/>
	<path d="M131,0C58.7,0,0,58.7,0,131c0,46.7,24.4,89.1,64.2,112.6c4.6,10.9,12.4,20.6,22.5,28c0.7,0.5,1.5,1,2.2,1.5
		c0,0.3-0.1,0.6-0.1,0.9v33c0,16.9,15.2,30.1,30.9,33.1c1.7,3,6.2,5.2,11.7,5.2c5.4,0,10-2.2,11.7-5.2c15.7-3,30.8-16.2,30.8-33v-33
		c0-0.5-0.1-1-0.1-1.4c0.4-0.3,0.9-0.6,1.4-0.9c10.2-7.3,18-17,22.5-28c39.8-23.6,64.2-66,64.2-112.6C261.9,58.7,203.2,0,131,0
		 M154,298.6l-44.3,12c-0.6-1.2-0.9-2.5-0.9-3.8V304l45.2-12.3V298.6z M136.4,320.6h-10c-4.5,0-9-1.9-12.4-4.7l40-10.9v1.8
		C154,313.6,145,320.6,136.4,320.6 M154,285.2l-45.2,12.3v-15.3c7.1,2.1,14.6,3.3,22.2,3.3c7.9,0,15.7-1.2,23.1-3.5V285.2z
		 M181.3,229.9c-4.9,20.4-25.6,35.7-50.4,35.7s-45.4-15.3-50.4-35.7c-36-18.4-60.7-55.7-60.7-98.9c0-61.3,49.7-111,111-111
		s111,49.7,111,111C242,174.1,217.3,211.5,181.3,229.9"/>
</g>
</svg>
